<svg width="23" height="23" viewBox="0 0 19 19" fill="none" xmlns="http://www.w3.org/2000/svg">
<path d="M9.46522 1C4.78988 1 1 4.80443 1 9.49771C1 14.191 4.78988 17.9954 9.46522 17.9954C14.1406 17.9954 17.9304 14.191 17.9304 9.49771C17.9304 4.80443 14.1406 1 9.46522 1Z" stroke="#797171" stroke-width="1.5" stroke-linecap="round" stroke-linejoin="round"/>
<path d="M2.92249 14.8903C2.92249 14.8903 4.80938 12.4719 9.46525 12.4719C14.1211 12.4719 16.0089 14.8903 16.0089 14.8903M9.46525 9.49768C10.1388 9.49768 10.7847 9.22909 11.261 8.751C11.7373 8.27291 12.0048 7.62448 12.0048 6.94836C12.0048 6.27224 11.7373 5.62381 11.261 5.14572C10.7847 4.66764 10.1388 4.39905 9.46525 4.39905C8.79172 4.39905 8.14577 4.66764 7.66951 5.14572C7.19325 5.62381 6.92569 6.27224 6.92569 6.94836C6.92569 7.62448 7.19325 8.27291 7.66951 8.751C8.14577 9.22909 8.79172 9.49768 9.46525 9.49768Z" stroke="#797171" stroke-width="1.5" stroke-linecap="round" stroke-linejoin="round"/>
</svg>
